<?xml version="1.0" standalone="no"?>
<!DOCTYPE svg PUBLIC "-//W3C//DTD SVG 20010904//EN"
 "http://www.w3.org/TR/2001/REC-SVG-20010904/DTD/svg10.dtd">
<svg version="1.0" xmlns="http://www.w3.org/2000/svg"
 width="601.000000pt" height="601.000000pt" viewBox="0 0 601.000000 601.000000"
 preserveAspectRatio="xMidYMid meet">
<metadata>
Created by potrace 1.11, written by Peter Selinger 2001-2013
</metadata>
<g transform="translate(0.000000,601.000000) scale(0.100000,-0.100000)"
fill="#000000" stroke="none">
<path d="M4400 5375 c0 -2 10 -10 23 -16 20 -11 21 -11 8 4 -13 16 -31 23 -31
12z"/>
<path d="M4530 5296 c0 -2 8 -10 18 -17 15 -13 16 -12 3 4 -13 16 -21 21 -21
13z"/>
<path d="M4620 5226 c14 -15 67 -62 118 -103 50 -42 92 -79 92 -82 0 -4 44
-54 98 -112 53 -57 119 -135 145 -174 26 -38 70 -101 98 -140 65 -91 236 -441
282 -575 29 -89 65 -222 74 -280 1 -8 9 -55 18 -105 8 -49 18 -112 21 -140 3
-27 7 -56 9 -63 12 -35 5 -425 -10 -525 -26 -186 -75 -408 -112 -507 -38 -105
-103 -252 -115 -261 -5 -3 -33 -53 -62 -112 -30 -59 -63 -118 -73 -131 -10
-13 -46 -59 -79 -103 -34 -43 -65 -89 -68 -101 -4 -12 -14 -22 -21 -22 -8 0
-27 -17 -42 -37 -34 -44 -119 -133 -128 -133 -3 0 -21 -15 -38 -32 -83 -84
-279 -268 -285 -268 -5 0 -23 -16 -42 -35 -19 -19 -39 -35 -45 -35 -6 0 -28
-16 -48 -35 -20 -19 -42 -35 -48 -35 -6 0 -38 -18 -71 -40 -33 -22 -66 -40
-74 -40 -7 0 -17 -6 -21 -13 -8 -14 -36 -29 -153 -84 -97 -46 -128 -54 -151
-40 -10 6 -19 17 -19 24 0 7 -4 13 -10 13 -12 0 -56 89 -66 133 -8 40 -25 67
-41 67 -7 0 -13 10 -13 23 0 20 17 31 109 75 354 167 633 463 736 778 31 94
32 147 5 174 -33 33 -65 34 -199 6 -424 -89 -1020 -156 -1386 -156 -368 0
-951 66 -1386 156 -74 16 -138 24 -153 20 -71 -18 -83 -78 -41 -202 108 -320
380 -607 736 -776 94 -45 109 -55 109 -76 0 -19 -4 -23 -19 -19 -21 5 -41 -27
-41 -66 0 -28 -61 -148 -72 -141 -4 3 -8 -2 -8 -10 0 -20 -32 -29 -63 -17 -17
7 -27 7 -29 0 -4 -11 -195 86 -221 112 -10 11 -23 19 -30 19 -7 0 -29 12 -48
26 -19 14 -59 38 -89 54 -30 16 -61 38 -68 49 -7 12 -17 21 -23 21 -20 0 -218
174 -413 362 -44 43 -84 78 -89 78 -12 0 -37 26 -37 39 0 5 -10 18 -23 28 -13
10 -32 32 -42 48 -11 17 -25 37 -32 45 -7 8 -29 35 -47 60 -19 25 -43 54 -54
65 -11 11 -27 36 -37 55 -9 19 -23 42 -30 50 -37 42 -198 388 -228 490 -31
102 -86 346 -103 451 -22 139 -22 456 0 599 52 342 99 507 207 738 27 57 49
106 49 108 0 3 28 56 61 117 52 94 96 161 148 224 6 6 27 37 47 70 21 32 79
101 131 155 51 53 93 100 93 105 -1 14 -183 -179 -262 -278 -269 -335 -463
-753 -537 -1155 -43 -234 -46 -267 -45 -524 0 -213 4 -279 22 -398 95 -608
373 -1139 818 -1561 297 -282 641 -483 1054 -617 104 -34 105 -35 135 -85 39
-67 125 -146 203 -187 34 -18 106 -45 159 -60 91 -24 113 -26 298 -26 185 0
207 2 298 26 169 46 289 128 362 247 33 53 40 58 88 71 164 41 488 184 667
295 360 224 698 569 910 931 233 400 353 816 367 1284 23 753 -250 1443 -782
1976 -82 83 -188 179 -235 214 -47 35 -74 51 -60 36z m-1524 -3684 c-10 -2
-22 0 -28 6 -6 6 0 7 19 4 21 -5 23 -7 9 -10z m-276 -38 c-100 -57 -140 -125
-140 -242 0 -142 62 -217 213 -256 l52 -13 3 -203 2 -202 -24 6 c-97 24 -150
77 -170 169 -6 24 -11 27 -50 27 -23 0 -45 -2 -48 -5 -3 -3 -1 -27 3 -52 25
-131 103 -202 262 -237 23 -6 27 -11 27 -41 l0 -35 55 0 55 0 0 34 c0 31 3 34
36 41 58 10 136 50 173 86 120 119 110 339 -18 421 -25 16 -79 39 -118 51
l-73 21 0 183 c0 140 3 183 13 183 24 -1 92 -38 116 -63 13 -15 29 -48 36 -74
12 -47 13 -48 54 -51 51 -4 58 10 42 83 -16 70 -59 127 -123 165 -29 16 -49
30 -45 30 18 0 115 -55 157 -89 24 -20 65 -47 90 -60 55 -29 83 -57 126 -128
50 -84 74 -166 83 -291 10 -147 0 -229 -41 -311 -61 -123 -121 -192 -233 -266
-106 -71 -199 -99 -325 -100 -113 0 -159 7 -225 35 -115 47 -181 93 -248 168
-57 64 -84 106 -122 192 -26 58 -29 77 -31 185 -1 66 2 143 7 170 14 75 49
185 60 185 5 0 9 8 9 18 0 31 87 119 147 148 31 15 69 39 85 52 32 27 147 91
163 92 6 0 -10 -12 -35 -26z m130 -239 c0 -199 2 -194 -80 -152 -54 27 -80 61
-87 115 -8 58 4 107 34 143 26 30 93 68 121 69 9 0 12 -42 12 -175z m201 -322
c71 -37 99 -79 99 -150 0 -92 -41 -152 -127 -188 -65 -27 -63 -34 -63 175 0
218 -4 211 91 163z"/>
<path d="M1280 5149 c-35 -31 -35 -31 -3 -9 18 11 35 25 38 30 10 16 2 11 -35
-21z"/>
<path d="M1885 4835 c-152 -27 -329 -105 -495 -216 -121 -81 -180 -137 -180
-172 0 -55 80 -64 150 -17 136 92 304 166 444 194 95 20 254 20 326 1 30 -8
88 -15 128 -15 64 0 76 3 97 25 51 51 21 120 -71 161 -114 50 -261 65 -399 39z"/>
<path d="M3850 4834 c-143 -31 -220 -82 -220 -145 0 -18 10 -39 25 -54 21 -22
33 -25 97 -25 40 0 98 7 128 15 72 19 231 19 326 -1 140 -28 308 -102 444
-194 70 -47 150 -38 150 17 0 35 -59 91 -180 172 -279 186 -552 263 -770 215z"/>
<path d="M2048 3878 l-3 -42 -58 -13 c-107 -24 -186 -80 -232 -164 -23 -44
-30 -69 -33 -135 -9 -177 57 -265 240 -318 l83 -24 3 -236 2 -236 -27 0 c-37
1 -111 35 -146 68 -35 33 -67 93 -67 125 0 35 -22 49 -72 45 l-43 -3 2 -50 c1
-33 12 -70 35 -114 51 -101 129 -150 291 -185 24 -6 27 -11 27 -46 l0 -40 55
0 55 0 0 39 0 38 67 17 c93 23 145 50 198 103 60 61 88 135 89 233 1 107 -22
167 -88 227 -50 46 -139 86 -238 107 l-28 6 0 220 c0 245 -5 231 72 204 68
-23 115 -73 135 -145 l16 -59 55 0 54 0 -7 48 c-19 135 -103 227 -243 268
l-77 22 -3 41 -3 41 -54 0 -54 0 -3 -42z m2 -369 l0 -212 -36 6 c-62 10 -124
47 -152 90 -23 35 -27 51 -27 113 0 64 3 77 30 116 32 45 118 98 162 98 l23 0
0 -211z m198 -365 c62 -20 120 -66 138 -110 37 -88 6 -207 -68 -267 -37 -30
-136 -70 -150 -61 -5 3 -8 106 -8 230 0 255 -7 238 88 208z"/>
<path d="M3850 3876 l0 -43 -48 -7 c-102 -13 -215 -95 -255 -184 -45 -103 -30
-258 33 -334 36 -44 131 -93 211 -110 l59 -12 0 -238 0 -238 -27 0 c-43 0
-125 43 -160 83 -29 33 -43 64 -57 130 -6 27 -9 28 -59 25 l-52 -3 2 -38 c6
-96 55 -187 128 -237 39 -27 126 -60 198 -75 24 -5 27 -10 27 -46 l0 -40 58 3
57 3 -3 37 -3 36 57 12 c133 28 216 86 265 185 74 151 37 331 -84 411 -40 27
-130 61 -210 78 l-27 6 2 218 3 217 28 -2 c84 -6 167 -85 182 -174 4 -21 12
-39 18 -40 41 -3 89 0 94 5 10 9 -12 108 -34 153 -21 45 -79 105 -125 129 -18
10 -62 25 -98 34 l-65 16 -3 42 -3 42 -55 0 -54 0 0 -44z m0 -366 c0 -238 6
-224 -84 -194 -120 41 -167 173 -106 294 10 19 26 43 37 52 25 23 103 58 131
58 l22 0 0 -210z m196 -365 c60 -18 122 -67 140 -111 33 -79 9 -199 -52 -256
-31 -29 -104 -64 -144 -70 l-25 -3 -3 228 c-3 258 -10 240 84 212z"/>
</g>
</svg>
